<mxfile host="Electron" agent="Mozilla/5.0 (Windows NT 10.0; Win64; x64) AppleWebKit/537.36 (KHTML, like Gecko) draw.io/28.0.6 Chrome/138.0.7204.100 Electron/37.2.3 Safari/537.36" version="28.0.6">
  <diagram name="Página-1" id="3F7QEQXIzWGhVAraJ914">
    <mxGraphModel dx="1722" dy="701" grid="1" gridSize="10" guides="1" tooltips="1" connect="1" arrows="1" fold="1" page="1" pageScale="1" pageWidth="827" pageHeight="1169" math="0" shadow="0">
      <root>
        <mxCell id="0" />
        <mxCell id="1" parent="0" />
        <mxCell id="7OqAvTRWnbTa5GXEed1M-41" value="Infra HVM Cluster (por loja)" style="rounded=0;whiteSpace=wrap;html=1;labelBorderColor=none;labelBackgroundColor=none;verticalAlign=bottom;fillColor=#f8cecc;strokeColor=#b85450;" vertex="1" parent="1">
          <mxGeometry x="430" y="50" width="356" height="378" as="geometry" />
        </mxCell>
        <mxCell id="7OqAvTRWnbTa5GXEed1M-15" value="Host 1 (Baremetal)" style="rounded=0;whiteSpace=wrap;html=1;verticalAlign=bottom;fillColor=#ffe6cc;strokeColor=#d79b00;" vertex="1" parent="1">
          <mxGeometry x="446" y="70" width="150" height="330" as="geometry" />
        </mxCell>
        <mxCell id="7OqAvTRWnbTa5GXEed1M-40" value="Host 2 (Baremetal)" style="rounded=0;whiteSpace=wrap;html=1;verticalAlign=bottom;fillColor=#ffe6cc;strokeColor=#d79b00;" vertex="1" parent="1">
          <mxGeometry x="616" y="70" width="150" height="330" as="geometry" />
        </mxCell>
        <mxCell id="7OqAvTRWnbTa5GXEed1M-26" value="&lt;span style=&quot;background-color: light-dark(rgb(218, 232, 251), rgb(237, 237, 237));&quot;&gt;Operational HVM Cluster&lt;/span&gt;" style="rounded=0;whiteSpace=wrap;html=1;labelBorderColor=none;labelBackgroundColor=none;verticalAlign=bottom;fillColor=#dae8fc;strokeColor=#6c8ebf;" vertex="1" parent="1">
          <mxGeometry x="466" y="90" width="280" height="285" as="geometry" />
        </mxCell>
        <mxCell id="2d2OQ-Xcoo-JY3IukJex-56" value="Cluster HVM (por loja)" style="rounded=1;whiteSpace=wrap;html=1;dashed=1;dashPattern=8 8;strokeColor=#B3B3B3;verticalAlign=bottom;fontColor=light-dark(#9c9c9c, #ededed);" parent="1" vertex="1">
          <mxGeometry x="50" y="198" width="330" height="270" as="geometry" />
        </mxCell>
        <mxCell id="2d2OQ-Xcoo-JY3IukJex-14" style="edgeStyle=orthogonalEdgeStyle;rounded=0;orthogonalLoop=1;jettySize=auto;html=1;endArrow=oval;endFill=1;" parent="1" source="2d2OQ-Xcoo-JY3IukJex-1" edge="1">
          <mxGeometry relative="1" as="geometry">
            <mxPoint x="210" y="218" as="targetPoint" />
          </mxGeometry>
        </mxCell>
        <mxCell id="2d2OQ-Xcoo-JY3IukJex-15" value="Management" style="edgeLabel;html=1;align=center;verticalAlign=middle;resizable=0;points=[];fontSize=6;" parent="2d2OQ-Xcoo-JY3IukJex-14" vertex="1" connectable="0">
          <mxGeometry x="-0.145" relative="1" as="geometry">
            <mxPoint y="-5" as="offset" />
          </mxGeometry>
        </mxCell>
        <mxCell id="2d2OQ-Xcoo-JY3IukJex-1" value="&lt;div&gt;&lt;b&gt;&lt;font style=&quot;font-size: 7px;&quot;&gt;VM&lt;/font&gt;&lt;/b&gt;&lt;/div&gt;&lt;b&gt;&lt;font style=&quot;font-size: 7px;&quot;&gt;Morpheus&lt;/font&gt;&lt;/b&gt;&lt;div&gt;&lt;b&gt;&lt;font style=&quot;font-size: 7px;&quot;&gt;Applicance&lt;/font&gt;&lt;/b&gt;&lt;/div&gt;" style="rounded=0;whiteSpace=wrap;html=1;dashed=1;dashPattern=1 1;fontSize=6;verticalAlign=top;fillColor=#f5f5f5;fontColor=#333333;strokeColor=#666666;" parent="1" vertex="1">
          <mxGeometry x="170" y="108" width="80" height="60" as="geometry" />
        </mxCell>
        <mxCell id="2d2OQ-Xcoo-JY3IukJex-22" style="edgeStyle=orthogonalEdgeStyle;rounded=0;orthogonalLoop=1;jettySize=auto;html=1;endArrow=oval;endFill=1;startSize=5;align=center;fontSize=7;" parent="1" edge="1">
          <mxGeometry relative="1" as="geometry">
            <mxPoint x="102.74000000000001" y="218" as="targetPoint" />
            <mxPoint x="102.74000000000001" y="308" as="sourcePoint" />
          </mxGeometry>
        </mxCell>
        <mxCell id="2d2OQ-Xcoo-JY3IukJex-29" value="&amp;nbsp;management&amp;nbsp;" style="edgeLabel;html=1;align=center;verticalAlign=middle;resizable=0;points=[];horizontal=0;" parent="2d2OQ-Xcoo-JY3IukJex-22" vertex="1" connectable="0">
          <mxGeometry x="0.0933" relative="1" as="geometry">
            <mxPoint x="-2" y="6" as="offset" />
          </mxGeometry>
        </mxCell>
        <mxCell id="2d2OQ-Xcoo-JY3IukJex-24" style="edgeStyle=orthogonalEdgeStyle;rounded=0;orthogonalLoop=1;jettySize=auto;html=1;endArrow=oval;endFill=1;" parent="1" edge="1">
          <mxGeometry relative="1" as="geometry">
            <mxPoint x="164.5" y="218" as="targetPoint" />
            <mxPoint x="164.5" y="308" as="sourcePoint" />
          </mxGeometry>
        </mxCell>
        <mxCell id="2d2OQ-Xcoo-JY3IukJex-30" value="&amp;nbsp;compute&amp;nbsp;" style="edgeLabel;html=1;align=center;verticalAlign=middle;resizable=0;points=[];horizontal=0;" parent="2d2OQ-Xcoo-JY3IukJex-24" vertex="1" connectable="0">
          <mxGeometry x="0.081" y="1" relative="1" as="geometry">
            <mxPoint y="4" as="offset" />
          </mxGeometry>
        </mxCell>
        <mxCell id="2d2OQ-Xcoo-JY3IukJex-2" value="&lt;div&gt;Baremetal&lt;/div&gt;HVM&lt;div&gt;Node 1&lt;/div&gt;" style="rounded=0;whiteSpace=wrap;html=1;fillColor=#f5f5f5;fontColor=#333333;strokeColor=#666666;" parent="1" vertex="1">
          <mxGeometry x="90" y="308" width="90" height="60" as="geometry" />
        </mxCell>
        <mxCell id="2d2OQ-Xcoo-JY3IukJex-6" value="" style="endArrow=none;startArrow=none;html=1;rounded=0;endFill=0;startFill=0;" parent="1" edge="1">
          <mxGeometry width="50" height="50" relative="1" as="geometry">
            <mxPoint x="80" y="218" as="sourcePoint" />
            <mxPoint x="350" y="218" as="targetPoint" />
          </mxGeometry>
        </mxCell>
        <mxCell id="2d2OQ-Xcoo-JY3IukJex-17" value="&lt;div&gt;&lt;br&gt;&lt;/div&gt;OS" style="strokeWidth=2;html=1;shape=mxgraph.flowchart.database;whiteSpace=wrap;fontSize=11;verticalAlign=bottom;" parent="1" vertex="1">
          <mxGeometry x="99" y="402" width="26" height="40" as="geometry" />
        </mxCell>
        <mxCell id="2d2OQ-Xcoo-JY3IukJex-19" value="VM" style="strokeWidth=2;html=1;shape=mxgraph.flowchart.database;whiteSpace=wrap;fontSize=11;verticalAlign=bottom;" parent="1" vertex="1">
          <mxGeometry x="196" y="402" width="26" height="40" as="geometry" />
        </mxCell>
        <mxCell id="2d2OQ-Xcoo-JY3IukJex-40" value="&lt;div&gt;&lt;br&gt;&lt;/div&gt;OS" style="strokeWidth=2;html=1;shape=mxgraph.flowchart.database;whiteSpace=wrap;fontSize=11;" parent="1" vertex="1">
          <mxGeometry x="170" y="38" width="26" height="40" as="geometry" />
        </mxCell>
        <mxCell id="2d2OQ-Xcoo-JY3IukJex-43" style="edgeStyle=orthogonalEdgeStyle;rounded=0;orthogonalLoop=1;jettySize=auto;html=1;endArrow=oval;endFill=1;startSize=5;align=center;fontSize=7;" parent="1" edge="1">
          <mxGeometry relative="1" as="geometry">
            <mxPoint x="252.74" y="218" as="targetPoint" />
            <mxPoint x="252.74" y="308" as="sourcePoint" />
          </mxGeometry>
        </mxCell>
        <mxCell id="2d2OQ-Xcoo-JY3IukJex-44" value="&amp;nbsp;management&amp;nbsp;" style="edgeLabel;html=1;align=center;verticalAlign=middle;resizable=0;points=[];horizontal=0;" parent="2d2OQ-Xcoo-JY3IukJex-43" vertex="1" connectable="0">
          <mxGeometry x="0.0933" relative="1" as="geometry">
            <mxPoint x="-2" y="6" as="offset" />
          </mxGeometry>
        </mxCell>
        <mxCell id="2d2OQ-Xcoo-JY3IukJex-47" style="edgeStyle=orthogonalEdgeStyle;rounded=0;orthogonalLoop=1;jettySize=auto;html=1;endArrow=oval;endFill=1;" parent="1" edge="1">
          <mxGeometry relative="1" as="geometry">
            <mxPoint x="314.5" y="218" as="targetPoint" />
            <mxPoint x="314.5" y="308" as="sourcePoint" />
          </mxGeometry>
        </mxCell>
        <mxCell id="2d2OQ-Xcoo-JY3IukJex-48" value="&amp;nbsp;compute&amp;nbsp;" style="edgeLabel;html=1;align=center;verticalAlign=middle;resizable=0;points=[];horizontal=0;" parent="2d2OQ-Xcoo-JY3IukJex-47" vertex="1" connectable="0">
          <mxGeometry x="0.081" y="1" relative="1" as="geometry">
            <mxPoint y="6" as="offset" />
          </mxGeometry>
        </mxCell>
        <mxCell id="2d2OQ-Xcoo-JY3IukJex-49" value="&lt;div&gt;Baremetal&lt;/div&gt;HVM&lt;div&gt;Node 2&lt;/div&gt;" style="rounded=0;whiteSpace=wrap;html=1;fillColor=#f5f5f5;fontColor=#333333;strokeColor=#666666;" parent="1" vertex="1">
          <mxGeometry x="240" y="308" width="90" height="60" as="geometry" />
        </mxCell>
        <mxCell id="2d2OQ-Xcoo-JY3IukJex-50" value="&lt;div&gt;&lt;br&gt;&lt;/div&gt;OS" style="strokeWidth=2;html=1;shape=mxgraph.flowchart.database;whiteSpace=wrap;fontSize=11;verticalAlign=bottom;" parent="1" vertex="1">
          <mxGeometry x="295" y="402" width="26" height="40" as="geometry" />
        </mxCell>
        <mxCell id="2d2OQ-Xcoo-JY3IukJex-57" value="Na atual solução de virtualização ou baremetal para economia de recursos na PoC" style="text;html=1;align=center;verticalAlign=middle;whiteSpace=wrap;rounded=0;fontSize=5;" parent="1" vertex="1">
          <mxGeometry x="170" y="138" width="80" height="30" as="geometry" />
        </mxCell>
        <mxCell id="2d2OQ-Xcoo-JY3IukJex-59" value="&lt;div&gt;&lt;br&gt;&lt;/div&gt;Data" style="strokeWidth=2;html=1;shape=mxgraph.flowchart.database;whiteSpace=wrap;fontSize=11;verticalAlign=middle;" parent="1" vertex="1">
          <mxGeometry x="224" y="38" width="26" height="40" as="geometry" />
        </mxCell>
        <mxCell id="2d2OQ-Xcoo-JY3IukJex-60" style="edgeStyle=orthogonalEdgeStyle;rounded=0;orthogonalLoop=1;jettySize=auto;html=1;entryX=0.155;entryY=0.002;entryDx=0;entryDy=0;entryPerimeter=0;endArrow=oval;endFill=1;" parent="1" source="2d2OQ-Xcoo-JY3IukJex-40" target="2d2OQ-Xcoo-JY3IukJex-1" edge="1">
          <mxGeometry relative="1" as="geometry" />
        </mxCell>
        <mxCell id="2d2OQ-Xcoo-JY3IukJex-62" value="FC" style="edgeLabel;html=1;align=center;verticalAlign=middle;resizable=0;points=[];fontSize=6;" parent="2d2OQ-Xcoo-JY3IukJex-60" vertex="1" connectable="0">
          <mxGeometry x="-0.1535" relative="1" as="geometry">
            <mxPoint as="offset" />
          </mxGeometry>
        </mxCell>
        <mxCell id="7OqAvTRWnbTa5GXEed1M-33" value="NVME" style="edgeLabel;html=1;align=center;verticalAlign=middle;resizable=0;points=[];fontSize=6;" vertex="1" connectable="0" parent="2d2OQ-Xcoo-JY3IukJex-60">
          <mxGeometry x="-0.3122" relative="1" as="geometry">
            <mxPoint as="offset" />
          </mxGeometry>
        </mxCell>
        <mxCell id="2d2OQ-Xcoo-JY3IukJex-61" style="edgeStyle=orthogonalEdgeStyle;rounded=0;orthogonalLoop=1;jettySize=auto;html=1;entryX=0.843;entryY=0.012;entryDx=0;entryDy=0;entryPerimeter=0;endArrow=oval;endFill=1;" parent="1" source="2d2OQ-Xcoo-JY3IukJex-59" target="2d2OQ-Xcoo-JY3IukJex-1" edge="1">
          <mxGeometry relative="1" as="geometry" />
        </mxCell>
        <mxCell id="2d2OQ-Xcoo-JY3IukJex-63" value="FC" style="edgeLabel;html=1;align=center;verticalAlign=middle;resizable=0;points=[];fontSize=6;" parent="2d2OQ-Xcoo-JY3IukJex-61" vertex="1" connectable="0">
          <mxGeometry x="-0.1523" relative="1" as="geometry">
            <mxPoint as="offset" />
          </mxGeometry>
        </mxCell>
        <mxCell id="7OqAvTRWnbTa5GXEed1M-34" value="NVME" style="edgeLabel;html=1;align=center;verticalAlign=middle;resizable=0;points=[];fontSize=6;" vertex="1" connectable="0" parent="2d2OQ-Xcoo-JY3IukJex-61">
          <mxGeometry x="-0.2283" y="1" relative="1" as="geometry">
            <mxPoint as="offset" />
          </mxGeometry>
        </mxCell>
        <mxCell id="7OqAvTRWnbTa5GXEed1M-5" value="" style="endArrow=none;html=1;rounded=0;entryX=0.75;entryY=1;entryDx=0;entryDy=0;exitX=0.5;exitY=0;exitDx=0;exitDy=0;exitPerimeter=0;" edge="1" parent="1" source="2d2OQ-Xcoo-JY3IukJex-50" target="2d2OQ-Xcoo-JY3IukJex-49">
          <mxGeometry width="50" height="50" relative="1" as="geometry">
            <mxPoint x="310" y="402" as="sourcePoint" />
            <mxPoint x="360" y="352" as="targetPoint" />
          </mxGeometry>
        </mxCell>
        <mxCell id="7OqAvTRWnbTa5GXEed1M-36" value="NVME" style="edgeLabel;html=1;align=center;verticalAlign=middle;resizable=0;points=[];" vertex="1" connectable="0" parent="7OqAvTRWnbTa5GXEed1M-5">
          <mxGeometry x="0.2663" relative="1" as="geometry">
            <mxPoint y="4" as="offset" />
          </mxGeometry>
        </mxCell>
        <mxCell id="7OqAvTRWnbTa5GXEed1M-6" value="" style="endArrow=none;html=1;rounded=0;exitX=0.5;exitY=0;exitDx=0;exitDy=0;exitPerimeter=0;entryX=0.25;entryY=1;entryDx=0;entryDy=0;" edge="1" parent="1" source="2d2OQ-Xcoo-JY3IukJex-17" target="2d2OQ-Xcoo-JY3IukJex-2">
          <mxGeometry width="50" height="50" relative="1" as="geometry">
            <mxPoint x="67" y="394" as="sourcePoint" />
            <mxPoint x="117" y="344" as="targetPoint" />
          </mxGeometry>
        </mxCell>
        <mxCell id="7OqAvTRWnbTa5GXEed1M-35" value="NVME" style="edgeLabel;html=1;align=center;verticalAlign=middle;resizable=0;points=[];" vertex="1" connectable="0" parent="7OqAvTRWnbTa5GXEed1M-6">
          <mxGeometry x="0.3784" relative="1" as="geometry">
            <mxPoint x="-3" y="6" as="offset" />
          </mxGeometry>
        </mxCell>
        <mxCell id="7OqAvTRWnbTa5GXEed1M-8" value="" style="endArrow=none;html=1;rounded=0;entryX=0.75;entryY=1;entryDx=0;entryDy=0;exitX=0;exitY=0.5;exitDx=0;exitDy=0;exitPerimeter=0;" edge="1" parent="1" source="2d2OQ-Xcoo-JY3IukJex-19" target="2d2OQ-Xcoo-JY3IukJex-2">
          <mxGeometry width="50" height="50" relative="1" as="geometry">
            <mxPoint x="154" y="422" as="sourcePoint" />
            <mxPoint x="204" y="372" as="targetPoint" />
            <Array as="points">
              <mxPoint x="158" y="422" />
            </Array>
          </mxGeometry>
        </mxCell>
        <mxCell id="7OqAvTRWnbTa5GXEed1M-37" value="LUN FC" style="edgeLabel;html=1;align=center;verticalAlign=middle;resizable=0;points=[];" vertex="1" connectable="0" parent="7OqAvTRWnbTa5GXEed1M-8">
          <mxGeometry x="0.5218" relative="1" as="geometry">
            <mxPoint as="offset" />
          </mxGeometry>
        </mxCell>
        <mxCell id="7OqAvTRWnbTa5GXEed1M-9" value="" style="endArrow=none;html=1;rounded=0;exitX=1;exitY=0.5;exitDx=0;exitDy=0;exitPerimeter=0;entryX=0.25;entryY=1;entryDx=0;entryDy=0;" edge="1" parent="1" source="2d2OQ-Xcoo-JY3IukJex-19" target="2d2OQ-Xcoo-JY3IukJex-49">
          <mxGeometry width="50" height="50" relative="1" as="geometry">
            <mxPoint x="237" y="420" as="sourcePoint" />
            <mxPoint x="287" y="370" as="targetPoint" />
            <Array as="points">
              <mxPoint x="263" y="422" />
            </Array>
          </mxGeometry>
        </mxCell>
        <mxCell id="7OqAvTRWnbTa5GXEed1M-38" value="LUN FC" style="edgeLabel;html=1;align=center;verticalAlign=middle;resizable=0;points=[];" vertex="1" connectable="0" parent="7OqAvTRWnbTa5GXEed1M-9">
          <mxGeometry x="0.3664" relative="1" as="geometry">
            <mxPoint y="-7" as="offset" />
          </mxGeometry>
        </mxCell>
        <mxCell id="7OqAvTRWnbTa5GXEed1M-18" value="Host 1 (VM)" style="rounded=0;whiteSpace=wrap;html=1;fillColor=light-dark(#e4e7ec, #ededed);" vertex="1" parent="1">
          <mxGeometry x="486.5" y="114" width="91" height="71" as="geometry" />
        </mxCell>
        <mxCell id="7OqAvTRWnbTa5GXEed1M-19" value="Host 2 (VM)" style="rounded=0;whiteSpace=wrap;html=1;fillColor=light-dark(#e4e7ec, #ededed);" vertex="1" parent="1">
          <mxGeometry x="486.5" y="193" width="91" height="71" as="geometry" />
        </mxCell>
        <mxCell id="7OqAvTRWnbTa5GXEed1M-20" value="Host 3 (VM)" style="rounded=0;whiteSpace=wrap;html=1;fillColor=light-dark(#e4e7ec, #ededed);" vertex="1" parent="1">
          <mxGeometry x="486" y="275" width="91" height="71" as="geometry" />
        </mxCell>
        <mxCell id="7OqAvTRWnbTa5GXEed1M-21" value="Host 4 (VM)" style="rounded=0;whiteSpace=wrap;html=1;fillColor=light-dark(#e4e7ec, #ededed);" vertex="1" parent="1">
          <mxGeometry x="636" y="114" width="91" height="71" as="geometry" />
        </mxCell>
        <mxCell id="7OqAvTRWnbTa5GXEed1M-22" value="Host 5 (VM)" style="rounded=0;whiteSpace=wrap;html=1;fillColor=light-dark(#e4e7ec, #ededed);" vertex="1" parent="1">
          <mxGeometry x="636" y="193" width="91" height="71" as="geometry" />
        </mxCell>
        <mxCell id="7OqAvTRWnbTa5GXEed1M-23" value="Host 6 (VM)" style="rounded=0;whiteSpace=wrap;html=1;fillColor=light-dark(#e4e7ec, #ededed);" vertex="1" parent="1">
          <mxGeometry x="636" y="275" width="91" height="71" as="geometry" />
        </mxCell>
      </root>
    </mxGraphModel>
  </diagram>
</mxfile>
